<svg xmlns="http://www.w3.org/2000/svg" id="icon_board" viewBox="0 0 24 24"><path d="m 19.996093,6.0009999 -2,0 0,2.0000002 2,0 0,-2.0000001 z m -2,2.0000002 -1.999999,0 0,1.9999999 1.999999,0 0,-1.9999999 z m 0,1.9999999 0,2 2,0 0,-2 -2,0 z m 0,2 -1.999999,0 0,2 1.999999,0 0,-2 z m 0,2 0,2 2,0 0,-2 -2,0 z m 0,2 -1.999999,0 0,2 1.999999,0 0,-2 z m 0,2 0,2 2,0 0,-2 -2,0 z m -1.999999,0 -1.999999,0 0,2 1.999999,0 0,-2 z m -1.999999,0 0,-2 -2,0 0,1.998047 -1.992189,0 0,2 2,0 0,-1.998047 1.992189,0 z m -3.992189,-0.002 0,-2 -1.9999995,0 0,2 1.9999995,0 z m -1.9999995,0 -2,0 0,2 2,0 0,-2 z m -2,0 0,-2 -2,0 0,2 2,0 z m 0,-2 2,0 0,-2 -2,0 0,2 z m 0,-2 0,-2 -2,0 0,2 2,0 z m 0,-2 2,0 0,-1.9999998 -2,0 0,1.9999998 z m 0,-1.9999998 0,-2.0000003 -2,0 0,2.0000003 2,0 z m 0,-2.0000003 2,0 0,-2 -2,0 0,2 z m 0,-2 0,-2 -2,0 0,2 2,0 z m 2,0 1.9999995,0 0,-2 -1.9999995,0 0,2 z m 1.9999995,0 0,2 2,0 0,-1.998047 1.992189,0 0,-2 -2,0 0,1.998047 -1.992189,0 z m 3.992189,0.00195 0,2.0000001 1.999999,0 0,-2.0000001 -1.999999,0 z m 1.999999,0 1.999999,0 0,-2 -1.999999,0 0,2 z m -1.999999,2.0000001 -2,0 0,1.9980472 -1.992189,0 0,1.9999998 2,0 0,-1.998047 1.992189,0 0,-2 z m 0,2 0,2 1.999999,0 0,-2 -1.999999,0 z m 0,2 -2,0 0,1.998047 -1.992189,0 0,2 2,0 0,-1.998047 1.992189,0 0,-2 z m 0,2 0,2 1.999999,0 0,-2 -1.999999,0 z m -3.992189,-0.002 0,-2 -1.9999995,0 0,2 1.9999995,0 z m 0,-3.9999998 0,-2.0000003 -1.9999995,0 0,2.0000003 1.9999995,0 z"/></svg>
