<svg xmlns="http://www.w3.org/2000/svg" id="icon_board" viewBox="0 0 24 24"><path d="m 21.450383,16.745203 -4.715947,0 0,4.734437 4.734434,0 0,-4.729812 c -0.01851,-0.0048 -0.01851,-0.0048 -0.01851,-0.0048 z m -4.715947,-1.1e-4 0,-4.734437 -4.734436,0 0,4.734437 z m -4.734436,0 -4.7344356,0 0,4.734434 4.7344356,0 z m -4.7344356,0 0,-4.734437 -4.7344351,0 0,4.734437 z m 0,-4.734437 4.7344356,0 0,-4.734435 -4.7344356,0 z m 0,-4.734435 0,-4.734437 -4.7344351,0 0,4.734437 z M 16.734436,2.541777 c -15.78761764,18.939326 -7.8938095,9.469662 0,0 z m 0,4.7344367 0,4.7344333 4.725188,0.08324 -0.05761,-4.8130338 z m 0,-1.11e-4 0,-4.7344371 L 11.968083,2.5203605 12,7.2760764 Z" /></svg>
